<?xml version="1.0" encoding="UTF-8"?>
<svg xmlns="http://www.w3.org/2000/svg" viewBox="0 0 2048 2048" width="256" height="256">
  <!-- Background with rounded corners -->
  <rect width="2048" height="2048" rx="320" ry="320" fill="#F8F1E7"/>
  <!-- Traced logo paths, flipped to correct orientation -->
  <g transform="translate(0,2048) scale(0.1,-0.1)" fill="#661828" stroke="none">
  <path d="M3784 16411 c-2 -2 -4 -107 -4 -232 l0 -228 43 -5 c248 -31 314 -41
399 -62 235 -57 481 -180 682 -340 239 -192 430 -444 627 -829 115 -223 175
-366 594 -1410 453 -1129 735 -1829 980 -2435 421 -1042 533 -1318 677 -1680
82 -206 246 -616 365 -910 118 -294 413 -1025 653 -1625 241 -599 508 -1261
593 -1470 328 -808 387 -953 425 -1040 l38 -90 337 -3 336 -2 15 27 c7 16 151
370 319 788 379 941 919 2283 1060 2630 57 143 157 388 220 545 377 934 332
824 669 1650 206 506 314 773 466 1155 66 165 130 323 142 350 20 47 129 317
475 1175 144 356 385 949 530 1305 365 895 546 1249 803 1571 261 326 644 567
1042 652 74 16 299 52 326 52 2 0 3 104 2 230 l-3 230 -2035 0 c-1119 0 -2038
0 -2042 0 -5 0 -8 -103 -8 -229 l0 -229 118 -11 c283 -29 421 -51 577 -91 379
-98 551 -235 627 -495 20 -70 23 -102 23 -255 0 -145 -4 -194 -23 -285 -29
-137 -149 -498 -297 -890 -234 -621 -396 -1049 -500 -1320 -59 -154 -165 -431
-235 -615 -164 -429 -326 -853 -402 -1050 -33 -85 -102 -265 -153 -400 -51
-135 -120 -315 -153 -400 -33 -85 -99 -256 -147 -380 -47 -124 -97 -252 -110
-285 -87 -223 -534 -1390 -565 -1475 -21 -58 -63 -168 -93 -245 -29 -77 -89
-232 -132 -345 -199 -522 -313 -800 -327 -800 -4 0 -16 17 -26 38 -23 43 -193
470 -385 962 -75 190 -245 622 -380 960 -134 338 -300 755 -367 925 -200 506
-587 1481 -640 1610 -27 66 -84 208 -125 315 -42 107 -132 335 -200 505 -68
171 -162 407 -208 525 -80 201 -301 754 -494 1235 -136 338 -291 750 -323 857
-127 425 -97 803 80 1026 105 133 323 241 624 308 117 26 383 64 447 64 22 0
41 6 46 14 4 8 7 115 5 238 l-3 223 -2490 0 c-1370 0 -2493 -2 -2495 -4z
M13306 7808 c-124 -68 -379 -357 -594 -675 -106 -156 -279 -480 -437 -813
-196 -418 -281 -592 -537 -1099 -153 -304 -278 -555 -276 -556 6 -6 290 314
782 880 71 83 173 200 226 260 250 286 391 463 560 705 189 272 300 471 389
699 105 273 132 540 60 612 -31 31 -101 25 -173 -13z M14275 6324 c-316 -53
-630 -209 -1031 -510 -185 -139 -1113 -935 -1292 -1108 -70 -67 -122 -136
-122 -160 0 -43 170 -6 410 89 934 370 1714 755 2106 1040 147 107 282 242
320 320 73 152 24 296 -115 335 -49 13 -179 11 -276 -6z M14185 4910 c-408
-34 -928 -155 -1382 -321 -344 -126 -623 -271 -623 -324 0 -32 148 -33 430 -3
184 19 264 22 790 23 375 1 626 6 700 13 631 66 1053 198 1116 348 44 105
-125 200 -444 250 -120 18 -440 26 -587 14z"/>
  </g>
</svg>